<?xml version="1.0" encoding="iso-8859-1"?>
<!-- Generator: Adobe Illustrator 19.0.0, SVG Export Plug-In . SVG Version: 6.00 Build 0)  -->
<svg version="1.1" id="Capa_1" xmlns="http://www.w3.org/2000/svg" xmlns:xlink="http://www.w3.org/1999/xlink" x="0px" y="0px"
	 viewBox="0 0 512 512" style="enable-background:new 0 0 512 512;" xml:space="preserve">
<g>
	<g>
		<path d="M406,60h-30v15c0,24.814-20.186,45-45,45H181c-24.814,0-45-20.186-45-45V60h-30c-24.814,0-45,20.186-45,45v360
			c0,24.814,20.186,47,45,47h300c24.814,0,45-22.186,45-47V105C451,80.186,430.814,60,406,60z M136,450c-8.284,0-15-6.716-15-15
			c0-8.286,6.716-15,15-15s15,6.714,15,15C151,443.284,144.284,450,136,450z M136,360c-8.284,0-15-6.716-15-15
			c0-8.286,6.716-15,15-15s15,6.714,15,15C151,353.284,144.284,360,136,360z M136,270c-8.284,0-15-6.716-15-15
			c0-8.286,6.716-15,15-15s15,6.714,15,15C151,263.284,144.284,270,136,270z M136,180c-8.284,0-15-6.716-15-15
			c0-8.286,6.716-15,15-15s15,6.714,15,15C151,173.284,144.284,180,136,180z M376,450H196c-8.291,0-15-6.709-15-15
			c0-8.291,6.709-15,15-15h180c8.291,0,15,6.709,15,15C391,443.291,384.291,450,376,450z M376,360H196c-8.291,0-15-6.709-15-15
			c0-8.291,6.709-15,15-15h180c8.291,0,15,6.709,15,15C391,353.291,384.291,360,376,360z M376,270H196c-8.291,0-15-6.709-15-15
			c0-8.291,6.709-15,15-15h180c8.291,0,15,6.709,15,15S384.291,270,376,270z M376,180H196c-8.291,0-15-6.709-15-15s6.709-15,15-15
			h180c8.291,0,15,6.709,15,15S384.291,180,376,180z"/>
	</g>
</g>
<g>
	<g>
		<path d="M316,30h-28.154l-3.545-9.99C280.053,8.042,268.686,0,256,0c-12.686,0-24.053,8.042-28.301,20.01L224.154,30H196
			c-16.569,0-30,13.431-30,30v15c0,8.284,6.716,15,15,15h150c8.284,0,15-6.716,15-15V60C346,43.431,332.569,30,316,30z"/>
	</g>
</g>
<g>
</g>
<g>
</g>
<g>
</g>
<g>
</g>
<g>
</g>
<g>
</g>
<g>
</g>
<g>
</g>
<g>
</g>
<g>
</g>
<g>
</g>
<g>
</g>
<g>
</g>
<g>
</g>
<g>
</g>
</svg>
